# xmcd
#
# Track frame offsets:
# 150
# 21412
# 41073
# 58088
# 81109
# 106582
# 124405
# 140424
# 160665
#
# Disc length: 2492 seconds
#
#
# Revision: 0
# Processed by: cddbd v1.5.1PL0 Copyright (c) Steve Scherf et al.
# Submitted via: FreeRIP 2.70 
#
DISCID=7409ba09
DTITLE=Skorriband - The Radio Session
DYEAR=2001
DGENRE=R&B
TTITLE0=When I leave Here
TTITLE1=Come Together
TTITLE2=Steal My Kisses
TTITLE3=Apple Green
TTITLE4=Kiss
TTITLE5=Ain't No Sunshine
TTITLE6=Life's Story
TTITLE7=I'm a Real Man
TTITLE8=Supernatural
EXTD=
EXTT0=
EXTT1=
EXTT2=
EXTT3=
EXTT4=
EXTT5=
EXTT6=
EXTT7=
EXTT8=
PLAYORDER=
